<?xml version="1.0" standalone="no"?><!DOCTYPE svg PUBLIC "-//W3C//DTD SVG 1.1//EN" "http://www.w3.org/Graphics/SVG/1.1/DTD/svg11.dtd"><svg t="1542685779150" class="icon" style="" viewBox="0 0 1024 1024" version="1.1" xmlns="http://www.w3.org/2000/svg" p-id="1103" xmlns:xlink="http://www.w3.org/1999/xlink" width="200" height="200"><defs><style type="text/css"></style></defs><path d="M156.3648 453.07904L479.232 187.6992a59.4944 59.4944 0 0 1 75.776 0l322.8672 265.3696a20.48 20.48 0 0 0 26.0096-31.6416L581.0176 156.0576a100.4544 100.4544 0 0 0-127.7952 0L130.3552 421.43744a20.48 20.48 0 0 0 26.0096 31.6416zM617.0624 743.69024c0-52.14208-42.7008-94.30016-95.26272-94.30016h-9.35936c-52.55168 0-95.27296 42.15808-95.27296 94.30016v99.47136H260.00384c-24.8832 0-44.96384-19.8144-44.96384-44.11392V522.24a20.48 20.48 0 1 0-40.96 0v276.80768c0 47.0528 38.53312 85.07392 85.92384 85.07392H437.6576a20.48 20.48 0 0 0 20.48-20.48V743.69024c0-29.3888 24.2688-53.34016 54.31296-53.34016h9.35936c30.0544 0 54.31296 23.94112 54.31296 53.34016V863.6416a20.48 20.48 0 0 0 20.48 20.48h168.2944c52.55168 0 95.27296-42.15808 95.27296-94.30016V522.24a20.48 20.48 0 1 0-40.96 0v267.58144c0 29.39904-24.25856 53.34016-54.31296 53.34016H617.0624v-99.47136z" p-id="1104"></path></svg>